<svg width="62" height="20" viewBox="0 0 62 20" fill="none" xmlns="http://www.w3.org/2000/svg">
<path d="M6.72852 0.505859V3.42578H5.22461V0.505859H6.72852ZM6.54297 16.4531V19.0703H5.04883V16.4531H6.54297ZM8.01758 13.2988C8.01758 12.9212 7.93945 12.5924 7.7832 12.3125C7.63346 12.026 7.38607 11.7689 7.04102 11.541C6.69596 11.3066 6.23372 11.0885 5.6543 10.8867C4.82096 10.5938 4.0918 10.265 3.4668 9.90039C2.84831 9.5293 2.36654 9.07357 2.02148 8.5332C1.68294 7.98633 1.51367 7.30599 1.51367 6.49219C1.51367 5.69141 1.69596 4.99805 2.06055 4.41211C2.43164 3.82617 2.94596 3.3737 3.60352 3.05469C4.26107 2.73568 5.0293 2.57617 5.9082 2.57617C6.58529 2.57617 7.19401 2.67708 7.73438 2.87891C8.28125 3.08073 8.74674 3.37695 9.13086 3.76758C9.51497 4.1582 9.80794 4.63997 10.0098 5.21289C10.2181 5.7793 10.3223 6.43034 10.3223 7.16602H7.97852C7.97852 6.74935 7.92969 6.37826 7.83203 6.05273C7.74089 5.7207 7.60417 5.44076 7.42188 5.21289C7.23958 4.97852 7.01823 4.79948 6.75781 4.67578C6.50391 4.55208 6.21419 4.49023 5.88867 4.49023C5.42643 4.49023 5.04557 4.57812 4.74609 4.75391C4.44661 4.92318 4.22526 5.15755 4.08203 5.45703C3.94531 5.75651 3.87695 6.09831 3.87695 6.48242C3.87695 6.85352 3.94857 7.17904 4.0918 7.45898C4.23503 7.73893 4.47917 7.99284 4.82422 8.2207C5.17578 8.44206 5.65755 8.66667 6.26953 8.89453C7.10938 9.19401 7.83529 9.5293 8.44727 9.90039C9.06576 10.265 9.54102 10.7174 9.87305 11.2578C10.2116 11.7917 10.3809 12.4655 10.3809 13.2793C10.3809 14.1191 10.1855 14.832 9.79492 15.418C9.41081 16.0039 8.87044 16.4499 8.17383 16.7559C7.48372 17.0553 6.67969 17.2051 5.76172 17.2051C5.18229 17.2051 4.60612 17.1302 4.0332 16.9805C3.4668 16.8242 2.95247 16.5703 2.49023 16.2188C2.02799 15.8672 1.66016 15.4017 1.38672 14.8223C1.11328 14.2363 0.976562 13.5202 0.976562 12.6738H3.33984C3.33984 13.1816 3.4082 13.6048 3.54492 13.9434C3.68164 14.2819 3.86719 14.5488 4.10156 14.7441C4.33594 14.9395 4.59635 15.0794 4.88281 15.1641C5.17578 15.2487 5.46875 15.291 5.76172 15.291C6.25 15.291 6.66016 15.2096 6.99219 15.0469C7.33073 14.8776 7.58464 14.6432 7.75391 14.3438C7.92969 14.0378 8.01758 13.6895 8.01758 13.2988ZM21.7383 13.123C21.7383 14.0085 21.5332 14.7539 21.123 15.3594C20.7129 15.9648 20.153 16.4238 19.4434 16.7363C18.7402 17.0423 17.946 17.1953 17.0605 17.1953C16.1751 17.1953 15.3776 17.0423 14.668 16.7363C13.9583 16.4238 13.3984 15.9648 12.9883 15.3594C12.5781 14.7539 12.373 14.0085 12.373 13.123C12.373 12.5371 12.487 12.0065 12.7148 11.5312C12.9427 11.0495 13.265 10.6361 13.6816 10.291C14.1048 9.93945 14.5996 9.66927 15.166 9.48047C15.7389 9.29167 16.3639 9.19727 17.041 9.19727C17.9395 9.19727 18.7435 9.36328 19.4531 9.69531C20.1628 10.0273 20.7194 10.4863 21.123 11.0723C21.5332 11.6582 21.7383 12.3418 21.7383 13.123ZM19.375 13.0059C19.375 12.5306 19.2773 12.1139 19.082 11.7559C18.8867 11.3978 18.6133 11.1211 18.2617 10.9258C17.9102 10.7305 17.5033 10.6328 17.041 10.6328C16.5723 10.6328 16.1654 10.7305 15.8203 10.9258C15.4753 11.1211 15.2051 11.3978 15.0098 11.7559C14.821 12.1139 14.7266 12.5306 14.7266 13.0059C14.7266 13.4876 14.821 13.9043 15.0098 14.2559C15.1986 14.6009 15.4688 14.8646 15.8203 15.0469C16.1719 15.2292 16.5853 15.3203 17.0605 15.3203C17.5358 15.3203 17.946 15.2292 18.291 15.0469C18.6361 14.8646 18.903 14.6009 19.0918 14.2559C19.2806 13.9043 19.375 13.4876 19.375 13.0059ZM21.416 6.52148C21.416 7.23112 21.2272 7.86263 20.8496 8.41602C20.4785 8.9694 19.9642 9.4056 19.3066 9.72461C18.6491 10.0371 17.9004 10.1934 17.0605 10.1934C16.2142 10.1934 15.459 10.0371 14.7949 9.72461C14.1374 9.4056 13.6198 8.9694 13.2422 8.41602C12.8711 7.86263 12.6855 7.23112 12.6855 6.52148C12.6855 5.67513 12.8711 4.96224 13.2422 4.38281C13.6198 3.79688 14.1374 3.35091 14.7949 3.04492C15.4525 2.73893 16.2044 2.58594 17.0508 2.58594C17.8971 2.58594 18.6491 2.73893 19.3066 3.04492C19.9642 3.35091 20.4785 3.79688 20.8496 4.38281C21.2272 4.96224 21.416 5.67513 21.416 6.52148ZM19.0625 6.59961C19.0625 6.17643 18.9779 5.80534 18.8086 5.48633C18.6458 5.16081 18.4147 4.9069 18.1152 4.72461C17.8158 4.54232 17.4609 4.45117 17.0508 4.45117C16.6406 4.45117 16.2858 4.53906 15.9863 4.71484C15.6868 4.89062 15.4557 5.13802 15.293 5.45703C15.1302 5.77604 15.0488 6.1569 15.0488 6.59961C15.0488 7.03581 15.1302 7.41667 15.293 7.74219C15.4557 8.0612 15.6868 8.31185 15.9863 8.49414C16.2923 8.67643 16.6504 8.76758 17.0605 8.76758C17.4707 8.76758 17.8255 8.67643 18.125 8.49414C18.4245 8.31185 18.6556 8.0612 18.8184 7.74219C18.9811 7.41667 19.0625 7.03581 19.0625 6.59961ZM30.918 2.69336H31.2109V4.61719H31.0449C30.2051 4.61719 29.4792 4.7474 28.8672 5.00781C28.2617 5.26823 27.7637 5.6263 27.373 6.08203C26.9824 6.53776 26.6895 7.07161 26.4941 7.68359C26.3053 8.28906 26.2109 8.93359 26.2109 9.61719V11.8535C26.2109 12.4199 26.2728 12.9212 26.3965 13.3574C26.5202 13.7871 26.6927 14.1484 26.9141 14.4414C27.1419 14.7279 27.4023 14.946 27.6953 15.0957C27.9883 15.2454 28.304 15.3203 28.6426 15.3203C28.9941 15.3203 29.3132 15.2487 29.5996 15.1055C29.8861 14.9557 30.1302 14.7507 30.332 14.4902C30.5339 14.2298 30.6868 13.9206 30.791 13.5625C30.8952 13.2044 30.9473 12.8138 30.9473 12.3906C30.9473 11.987 30.8952 11.6094 30.791 11.2578C30.6934 10.8997 30.5469 10.5872 30.3516 10.3203C30.1562 10.0469 29.9121 9.83529 29.6191 9.68555C29.3327 9.5293 29.0007 9.45117 28.623 9.45117C28.1543 9.45117 27.7279 9.56185 27.3438 9.7832C26.9661 10.0046 26.6602 10.2943 26.4258 10.6523C26.1979 11.0039 26.0742 11.3783 26.0547 11.7754L25.1562 11.4824C25.2083 10.877 25.3418 10.3333 25.5566 9.85156C25.778 9.36979 26.0677 8.95964 26.4258 8.62109C26.7839 8.28255 27.1973 8.02539 27.666 7.84961C28.1413 7.66732 28.6621 7.57617 29.2285 7.57617C29.9186 7.57617 30.5176 7.70638 31.0254 7.9668C31.5332 8.22721 31.9531 8.58203 32.2852 9.03125C32.6237 9.47396 32.8743 9.98177 33.0371 10.5547C33.2064 11.1211 33.291 11.7135 33.291 12.332C33.291 13.0156 33.1868 13.6536 32.9785 14.2461C32.7702 14.832 32.4642 15.3464 32.0605 15.7891C31.6634 16.2318 31.1784 16.5768 30.6055 16.8242C30.0391 17.0716 29.3945 17.1953 28.6719 17.1953C27.9102 17.1953 27.2298 17.0488 26.6309 16.7559C26.0384 16.4629 25.5339 16.0592 25.1172 15.5449C24.707 15.0306 24.3945 14.4382 24.1797 13.7676C23.9648 13.097 23.8574 12.3874 23.8574 11.6387V10.6621C23.8574 9.58138 23.9941 8.5625 24.2676 7.60547C24.541 6.64193 24.9609 5.79232 25.5273 5.05664C26.1003 4.32096 26.8327 3.74479 27.7246 3.32812C28.6165 2.90495 29.681 2.69336 30.918 2.69336ZM35.4102 15.8281C35.4102 15.4635 35.5339 15.1576 35.7812 14.9102C36.0286 14.6562 36.3639 14.5293 36.7871 14.5293C37.2168 14.5293 37.5521 14.6562 37.793 14.9102C38.0404 15.1576 38.1641 15.4635 38.1641 15.8281C38.1641 16.1927 38.0404 16.4987 37.793 16.7461C37.5521 16.9935 37.2168 17.1172 36.7871 17.1172C36.3639 17.1172 36.0286 16.9935 35.7812 16.7461C35.5339 16.4987 35.4102 16.1927 35.4102 15.8281ZM50.0098 8.69922V11.0234C50.0098 12.1367 49.8991 13.0872 49.6777 13.875C49.4629 14.6562 49.1504 15.291 48.7402 15.7793C48.3301 16.2676 47.8385 16.6257 47.2656 16.8535C46.6992 17.0814 46.0645 17.1953 45.3613 17.1953C44.8014 17.1953 44.2806 17.1237 43.7988 16.9805C43.3236 16.8372 42.8939 16.6126 42.5098 16.3066C42.1257 16.0007 41.7969 15.6068 41.5234 15.125C41.2565 14.6367 41.0482 14.054 40.8984 13.377C40.7552 12.6999 40.6836 11.9154 40.6836 11.0234V8.69922C40.6836 7.57943 40.7943 6.63542 41.0156 5.86719C41.237 5.09245 41.5527 4.46419 41.9629 3.98242C42.373 3.49414 42.8613 3.13932 43.4277 2.91797C44.0007 2.69661 44.6387 2.58594 45.3418 2.58594C45.9082 2.58594 46.429 2.65755 46.9043 2.80078C47.3861 2.9375 47.8158 3.1556 48.1934 3.45508C48.5775 3.75456 48.903 4.14518 49.1699 4.62695C49.4434 5.10221 49.6517 5.67839 49.7949 6.35547C49.9382 7.02604 50.0098 7.80729 50.0098 8.69922ZM47.6562 11.3555V8.34766C47.6562 7.78125 47.6237 7.2832 47.5586 6.85352C47.4935 6.41732 47.3958 6.04948 47.2656 5.75C47.1419 5.44401 46.9857 5.19661 46.7969 5.00781C46.6081 4.8125 46.3932 4.67253 46.1523 4.58789C45.9115 4.49674 45.6413 4.45117 45.3418 4.45117C44.9772 4.45117 44.6517 4.52279 44.3652 4.66602C44.0788 4.80273 43.8379 5.02409 43.6426 5.33008C43.4473 5.63607 43.2975 6.03971 43.1934 6.54102C43.0957 7.03581 43.0469 7.63802 43.0469 8.34766V11.3555C43.0469 11.9284 43.0794 12.4329 43.1445 12.8691C43.2096 13.3053 43.3073 13.6797 43.4375 13.9922C43.5677 14.2982 43.724 14.5521 43.9062 14.7539C44.0951 14.9492 44.3099 15.0924 44.5508 15.1836C44.7982 15.2747 45.0684 15.3203 45.3613 15.3203C45.7324 15.3203 46.0612 15.2487 46.3477 15.1055C46.6341 14.9622 46.875 14.7344 47.0703 14.4219C47.2656 14.1029 47.4121 13.6895 47.5098 13.1816C47.6074 12.6738 47.6562 12.0651 47.6562 11.3555ZM61.377 8.69922V11.0234C61.377 12.1367 61.2663 13.0872 61.0449 13.875C60.8301 14.6562 60.5176 15.291 60.1074 15.7793C59.6973 16.2676 59.2057 16.6257 58.6328 16.8535C58.0664 17.0814 57.4316 17.1953 56.7285 17.1953C56.1686 17.1953 55.6478 17.1237 55.166 16.9805C54.6908 16.8372 54.2611 16.6126 53.877 16.3066C53.4928 16.0007 53.1641 15.6068 52.8906 15.125C52.6237 14.6367 52.4154 14.054 52.2656 13.377C52.1224 12.6999 52.0508 11.9154 52.0508 11.0234V8.69922C52.0508 7.57943 52.1615 6.63542 52.3828 5.86719C52.6042 5.09245 52.9199 4.46419 53.3301 3.98242C53.7402 3.49414 54.2285 3.13932 54.7949 2.91797C55.3678 2.69661 56.0059 2.58594 56.709 2.58594C57.2754 2.58594 57.7962 2.65755 58.2715 2.80078C58.7533 2.9375 59.1829 3.1556 59.5605 3.45508C59.9447 3.75456 60.2702 4.14518 60.5371 4.62695C60.8105 5.10221 61.0189 5.67839 61.1621 6.35547C61.3053 7.02604 61.377 7.80729 61.377 8.69922ZM59.0234 11.3555V8.34766C59.0234 7.78125 58.9909 7.2832 58.9258 6.85352C58.8607 6.41732 58.763 6.04948 58.6328 5.75C58.5091 5.44401 58.3529 5.19661 58.1641 5.00781C57.9753 4.8125 57.7604 4.67253 57.5195 4.58789C57.2786 4.49674 57.0085 4.45117 56.709 4.45117C56.3444 4.45117 56.0189 4.52279 55.7324 4.66602C55.446 4.80273 55.2051 5.02409 55.0098 5.33008C54.8145 5.63607 54.6647 6.03971 54.5605 6.54102C54.4629 7.03581 54.4141 7.63802 54.4141 8.34766V11.3555C54.4141 11.9284 54.4466 12.4329 54.5117 12.8691C54.5768 13.3053 54.6745 13.6797 54.8047 13.9922C54.9349 14.2982 55.0911 14.5521 55.2734 14.7539C55.4622 14.9492 55.6771 15.0924 55.918 15.1836C56.1654 15.2747 56.4355 15.3203 56.7285 15.3203C57.0996 15.3203 57.4284 15.2487 57.7148 15.1055C58.0013 14.9622 58.2422 14.7344 58.4375 14.4219C58.6328 14.1029 58.7793 13.6895 58.877 13.1816C58.9746 12.6738 59.0234 12.0651 59.0234 11.3555Z" fill="#4200FF"/>
</svg>
